<svg xmlns="http://www.w3.org/2000/svg" width="100" height="100" xmlns:v="https://vecta.io/nano"><circle cx="50" cy="50" r="50" fill="#ff5d89"/><path d="M68.53 37.18c.001-.015.001-.03 0-.044-.056-.08-.126-.15-.184-.23q-.635-.855-1.343-1.655l-.4-.43q-.726-.778-1.523-1.483l-.288-.263a22.57 22.57 0 0 0-4.274-2.886l-.188-.092a22.4 22.4 0 0 0-2.094-.932l-.46-.16q-.952-.343-1.933-.6l-.583-.15-1.945-.358-.6-.092a21.17 21.17 0 0 0-5.108 0l-.6.092-1.947.358-.583.15q-.987.258-1.933.6l-.46.16c-.713.275-1.412.586-2.094.932l-.188.092c-1.533.795-2.97 1.763-4.283 2.886l-.288.263c-.533.468-1.04.963-1.524 1.483l-.4.43q-.707.794-1.337 1.656l-.184.23c-.007.014-.014.03-.02.044a22.4 22.4 0 0 0 0 26.022.35.35 0 0 0 .019.044c.056.08.126.15.184.23q.63.86 1.337 1.656l.4.43q.728.778 1.523 1.483l.288.263a22.57 22.57 0 0 0 4.277 2.883l.188.092a22.4 22.4 0 0 0 2.094.932l.46.16q.952.343 1.933.6l.583.15 1.947.358.6.092a21.17 21.17 0 0 0 5.108 0l.6-.092 1.947-.358.583-.15q.99-.258 1.933-.6l.46-.16c.713-.275 1.412-.586 2.094-.932l.188-.092c1.53-.796 2.964-1.764 4.274-2.886l.288-.263a20.5 20.5 0 0 0 1.518-1.483l.4-.43q.707-.8 1.337-1.656l.184-.23c.007-.014.014-.03.02-.044a22.4 22.4 0 0 0-.003-26.02zm-1.837 3.047c1.54 2.537 2.47 5.397 2.717 8.354h-9.647a30.05 30.05 0 0 0-.9-5.683 28.94 28.94 0 0 0 7.83-2.671zM54.262 31.3l.267.07a17.33 17.33 0 0 1 1.707.483l.253.093q.83.3 1.635.644l.28.135q.768.366 1.5.79l.322.195q.7.425 1.353.9l.337.25c.43.323.842.668 1.234 1.036l.31.282a19.76 19.76 0 0 1 1.185 1.234l.148.16c-2.18 1.04-4.49 1.78-6.87 2.206a40.95 40.95 0 0 0-4.335-8.6l.673.108zM43.78 48.58a26.87 26.87 0 0 1 .886-5.153 46.15 46.15 0 0 0 5.5.322c1.838-.001 3.675-.11 5.5-.33a26.82 26.82 0 0 1 .881 5.162zm12.768 3.22a26.87 26.87 0 0 1-.886 5.153c-3.654-.43-7.346-.43-11 0a26.83 26.83 0 0 1-.881-5.153zm-6.384-19.886a38.9 38.9 0 0 1 4.488 8.374c-1.49.158-2.99.238-4.488.238s-2.995-.082-4.484-.24a39.2 39.2 0 0 1 4.484-8.372zm-14.478 5.517c.378-.428.773-.842 1.185-1.234.1-.1.208-.188.31-.282q.6-.543 1.234-1.036c.11-.085.224-.16.337-.25q.657-.483 1.353-.9l.322-.195q.733-.428 1.5-.79l.28-.135q.8-.362 1.635-.644c.084-.03.16-.064.253-.093a21.41 21.41 0 0 1 1.707-.483c.1-.02.177-.05.27-.07.22-.048.45-.07.673-.11-1.78 2.686-3.235 5.573-4.337 8.6-2.378-.423-4.688-1.164-6.87-2.2.048-.057.1-.108.148-.165zm-2.05 2.795c2.47 1.26 5.106 2.16 7.83 2.67a30.05 30.05 0 0 0-.9 5.683h-9.646c.246-2.957 1.176-5.816 2.716-8.353zm0 19.928c-1.54-2.537-2.47-5.397-2.716-8.354h9.647a30.05 30.05 0 0 0 .9 5.683c-2.725.5-5.362 1.408-7.83 2.668zm12.43 8.917c-.1-.02-.177-.05-.267-.07a17.33 17.33 0 0 1-1.707-.483c-.085-.03-.17-.063-.253-.093q-.83-.3-1.635-.644c-.093-.043-.185-.092-.28-.135q-.768-.366-1.5-.79l-.322-.195q-.7-.425-1.353-.9c-.113-.082-.225-.16-.337-.25-.43-.323-.842-.67-1.234-1.037l-.31-.282a19.76 19.76 0 0 1-1.185-1.234c-.048-.056-.1-.108-.148-.16 2.18-1.038 4.488-1.78 6.865-2.205a40.95 40.95 0 0 0 4.335 8.6c-.22-.037-.448-.06-.67-.108zm4.1-.606a38.9 38.9 0 0 1-4.488-8.374c2.982-.32 5.99-.32 8.973 0h0a39.2 39.2 0 0 1-4.488 8.374zm14.475-5.514c-.378.428-.773.842-1.185 1.234-.1.1-.208.188-.31.282q-.6.544-1.234 1.036l-.337.25q-.657.483-1.353.9l-.32.187q-.73.427-1.5.79l-.28.135q-.8.362-1.635.644c-.084.03-.16.064-.253.093a21.41 21.41 0 0 1-1.707.483c-.1.02-.177.05-.27.07-.22.048-.45.07-.673.11 1.778-2.686 3.233-5.573 4.335-8.6 2.378.425 4.688 1.167 6.87 2.206-.047.057-.098.108-.147.168zm2.05-2.8c-2.47-1.26-5.106-2.16-7.83-2.67a30.05 30.05 0 0 0 .9-5.683h9.647c-.247 2.957-1.177 5.817-2.717 8.353z" fill="#fff"/></svg>